# xmcd CD database file
#
# Track frame offsets:
#	150
#	20500
#	36925
#	58132
#	70410
#	90355
#	109022
#	132242
#	149015
#	164930
#	179332
#	195597
#
# Disc length: 2899 seconds
#
# Revision: 4
# Processed by: cddbd v1.5.1PL2 Copyright (c) Steve Scherf et al.
# Submitted via: CDex 1.51
#
DISCID=b40b510c
DTITLE=スピッツ - スピッツ
DYEAR=1991
DGENRE=Rock
TTITLE0=ニノウデの世界
TTITLE1=海とピンク
TTITLE2=ビー玉
TTITLE3=五千光年の夢
TTITLE4=月に帰る
TTITLE5=テレビ
TTITLE6=タンポポ
TTITLE7=死神の岬へ
TTITLE8=トンビ飛べなかった
TTITLE9=夏の魔物
TTITLE10=うめぼし
TTITLE11=ヒバリのこころ
EXTD=YEAR: 1991
EXTT0=
EXTT1=
EXTT2=
EXTT3=
EXTT4=
EXTT5=
EXTT6=
EXTT7=
EXTT8=
EXTT9=
EXTT10=
EXTT11=
PLAYORDER=
